<svg width="253" height="65" viewBox="0 0 253 65" fill="none" xmlns="http://www.w3.org/2000/svg">
<path d="M2 4V37.0982M2 4L23.5 20.5491M2 4L11.8087 29.5482M2 37.0982H45M2 37.0982L11.8087 29.5482M2 37.0982L23.5 60M2 37.0982H14.7074M45 37.0982L23.5 60M45 37.0982V4M45 37.0982L35.1913 29.5482M45 37.0982H32.2926M23.5 60L11.8087 29.5482M23.5 60L35.1913 29.5482M23.5 60L14.7074 37.0982M23.5 60L32.2926 37.0982M45 4L35.1913 29.5482M45 4L23.5 20.5491M35.1913 29.5482L23.5 20.5491M35.1913 29.5482L32.2926 37.0982M23.5 20.5491L11.8087 29.5482M11.8087 29.5482L14.7074 37.0982M14.7074 37.0982H32.2926" stroke="url(#paint0_linear_702_14033)" stroke-width="3" stroke-linejoin="round"/>
<path d="M67.4 50V14.75H89.4V18.15H71.55V30.5H88.3V33.9H71.55V50H67.4ZM102.898 50.45C100.498 50.45 98.3984 49.9333 96.5984 48.9C94.8318 47.8333 93.4651 46.3333 92.4984 44.4C91.5318 42.4333 91.0484 40.1167 91.0484 37.45C91.0484 34.75 91.5318 32.4333 92.4984 30.5C93.4651 28.5667 94.8318 27.0833 96.5984 26.05C98.3984 24.9833 100.498 24.45 102.898 24.45C105.332 24.45 107.432 24.9833 109.198 26.05C110.998 27.0833 112.382 28.5667 113.348 30.5C114.348 32.4333 114.848 34.75 114.848 37.45C114.848 40.1167 114.348 42.4333 113.348 44.4C112.382 46.3333 110.998 47.8333 109.198 48.9C107.432 49.9333 105.332 50.45 102.898 50.45ZM102.898 47.15C105.298 47.15 107.198 46.3333 108.598 44.7C109.998 43.0333 110.698 40.6167 110.698 37.45C110.698 34.25 109.982 31.8333 108.548 30.2C107.148 28.5333 105.265 27.7 102.898 27.7C100.532 27.7 98.6484 28.5333 97.2484 30.2C95.8484 31.8333 95.1484 34.25 95.1484 37.45C95.1484 40.6167 95.8484 43.0333 97.2484 44.7C98.6484 46.3333 100.532 47.15 102.898 47.15ZM115.726 50L126.976 36.05V38.05L116.326 24.9H121.226L129.276 35.15H127.826L135.826 24.9H140.676L130.176 38V36.15L141.326 50H136.376L127.776 39.05H129.276L120.576 50H115.726ZM144.384 50V24.9H148.434V50H144.384ZM143.884 19.2V14.65H148.884V19.2H143.884ZM165.948 50.45C162.014 50.45 158.914 49.3167 156.648 47.05C154.381 44.75 153.248 41.5667 153.248 37.5C153.248 34.8667 153.748 32.5833 154.748 30.65C155.748 28.6833 157.148 27.1667 158.948 26.1C160.748 25 162.814 24.45 165.148 24.45C167.448 24.45 169.381 24.9333 170.948 25.9C172.514 26.8667 173.714 28.25 174.548 30.05C175.381 31.8167 175.798 33.9167 175.798 36.35V37.85H156.348V35.3H173.148L172.298 35.95C172.298 33.2833 171.698 31.2 170.498 29.7C169.298 28.2 167.514 27.45 165.148 27.45C162.648 27.45 160.698 28.3333 159.298 30.1C157.898 31.8333 157.198 34.1833 157.198 37.15V37.6C157.198 40.7333 157.964 43.1167 159.498 44.75C161.064 46.35 163.248 47.15 166.048 47.15C167.548 47.15 168.948 46.9333 170.248 46.5C171.581 46.0333 172.848 45.2833 174.048 44.25L175.448 47.1C174.348 48.1667 172.948 49 171.248 49.6C169.581 50.1667 167.814 50.45 165.948 50.45Z" fill="url(#paint1_linear_702_14033)"/>
<defs>
<linearGradient id="paint0_linear_702_14033" x1="23.5" y1="4" x2="23.5" y2="60" gradientUnits="userSpaceOnUse">
<stop stop-color="#EC6159"/>
<stop offset="1" stop-color="#FDAF88"/>
</linearGradient>
<linearGradient id="paint1_linear_702_14033" x1="158" y1="0" x2="158" y2="65" gradientUnits="userSpaceOnUse">
<stop stop-color="#ED5656"/>
<stop offset="1" stop-color="#FDAF88"/>
</linearGradient>
</defs>
</svg>
