<svg width="29" height="29" viewBox="0 0 29 29" fill="none" xmlns="http://www.w3.org/2000/svg">
<path d="M1.55957 14.5001L4.43513 11.6245M4.43513 11.6245L14.4996 1.56006L24.564 11.6245M4.43513 11.6245V26.0023C4.43513 26.7963 5.07884 27.4401 5.8729 27.4401H10.1862M24.564 11.6245L27.4396 14.5001M24.564 11.6245V26.0023C24.564 26.7963 23.9203 27.4401 23.1262 27.4401H18.8129M10.1862 27.4401C10.9803 27.4401 11.624 26.7963 11.624 26.0023V20.2512C11.624 19.4571 12.2677 18.8134 13.0618 18.8134H15.9373C16.7314 18.8134 17.3751 19.4571 17.3751 20.2512V26.0023C17.3751 26.7963 18.0188 27.4401 18.8129 27.4401M10.1862 27.4401H18.8129" stroke="black" stroke-width="3" stroke-linecap="round" stroke-linejoin="round"/>
</svg>
